<svg id="visual" viewBox="0 0 900 600" width="900" height="600" xmlns="http://www.w3.org/2000/svg" xmlns:xlink="http://www.w3.org/1999/xlink" version="1.1"><path d="M0 498L21.5 493.2C43 488.3 86 478.7 128.8 465.5C171.7 452.3 214.3 435.7 257.2 427.3C300 419 343 419 385.8 425.3C428.7 431.7 471.3 444.3 514.2 437.7C557 431 600 405 642.8 413.8C685.7 422.7 728.3 466.3 771.2 465.7C814 465 857 420 878.5 397.5L900 375L900 601L878.5 601C857 601 814 601 771.2 601C728.3 601 685.7 601 642.8 601C600 601 557 601 514.2 601C471.3 601 428.7 601 385.8 601C343 601 300 601 257.2 601C214.3 601 171.7 601 128.8 601C86 601 43 601 21.5 601L0 601Z" fill="#12ff00" stroke-linecap="round" stroke-linejoin="miter"></path></svg>